<?xml version="1.0" encoding="UTF-8"?><svg xmlns="http://www.w3.org/2000/svg" xmlns:xlink="http://www.w3.org/1999/xlink" height="64.2" preserveAspectRatio="xMidYMid meet" version="1.0" viewBox="4.7 0.0 54.6 64.2" width="54.6" zoomAndPan="magnify">
 <defs>
  <linearGradient gradientUnits="userSpaceOnUse" id="A" x1="-.031" x2="26.596" xlink:actuate="onLoad" xlink:show="other" xlink:type="simple" xmlns:xlink="http://www.w3.org/1999/xlink" y1="44.365" y2="44.365">
   <stop offset="0" stop-color="#f1562b"/>
   <stop offset=".3" stop-color="#f1542b"/>
   <stop offset=".41" stop-color="#f04d2a"/>
   <stop offset=".49" stop-color="#ef4229"/>
   <stop offset=".5" stop-color="#ef4029"/>
   <stop offset=".56" stop-color="#e83e28"/>
   <stop offset=".67" stop-color="#e13c26"/>
   <stop offset="1" stop-color="#df3c26"/>
  </linearGradient>
 </defs>
 <path d="m26.605 38.85l-0.964-2.617 0.67-1.502c0.086-0.194 0.044-0.42-0.105-0.572l-1.822-1.842a2.94 2.94 0 0 0 -3.066 -0.712l-0.5 0.177-2.783-3.016-4.752-0.026-4.752 0.037-2.78 3.04-0.495-0.175a2.95 2.95 0 0 0 -3.086 0.718l-1.866 1.877a0.41 0.41 0 0 0 -0.083 0.456l0.7 1.56-0.96 2.615 3.447 13.107c0.326 1.238 1.075 2.323 2.118 3.066l6.817 4.62a1.51 1.51 0 0 0 1.886 0l6.813-4.627c1.042-0.743 1.8-1.828 2.115-3.066l2.812-10.752z" fill="url(#A)" transform="matrix(2.0482 0 0 2.0482 4.7955 -58.865)"/>
 <g id="change1_1"><path d="m33.595 39.673a8.26 8.26 0 0 0 -1.139 -0.413h-0.686a8.26 8.26 0 0 0 -1.139 0.413l-1.727 0.718-1.95 0.897-3.176 1.655c-0.235 0.076-0.4 0.288-0.417 0.535s0.118 0.48 0.34 0.586l2.757 1.936a21.86 21.86 0 0 1 1.695 1.346l0.776 0.668 1.624 1.422 0.736 0.65a1.27 1.27 0 0 0 1.62 0l3.174-2.773 1.7-1.346 2.758-1.974a0.6 0.6 0 0 0 -0.085 -1.117l-3.17-1.6-1.96-0.897zm19.555-17.77l0.1-0.287a7.73 7.73 0 0 0 -0.072 -1.148c-0.267-0.68-0.6-1.326-1.023-1.93l-1.794-2.633-1.278-1.736-2.404-3c-0.22-0.293-0.458-0.572-0.713-0.834h-0.05l-1.068 0.197-5.284 1.018c-0.535 0.025-1.07-0.053-1.574-0.23l-2.902-0.937-2.077-0.574a8.68 8.68 0 0 0 -1.834 0l-2.077 0.58-2.902 0.942a4.21 4.21 0 0 1 -1.574 0.23l-5.278-1-1.068-0.197h-0.05c-0.256 0.262-0.494 0.54-0.713 0.834l-2.4 3a29.33 29.33 0 0 0 -1.278 1.736l-1.794 2.633-0.848 1.413c-0.154 0.543-0.235 1.104-0.242 1.67l0.1 0.287c0.043 0.184 0.1 0.366 0.166 0.543l1.417 1.628 6.28 6.674a1.79 1.79 0 0 1 0.318 1.794l-1.056 2.424a3.16 3.16 0 0 0 -0.049 2.005l0.206 0.565a5.45 5.45 0 0 0 1.673 2.346l0.987 0.803c0.52 0.376 1.2 0.457 1.794 0.215l3.508-1.673a8.79 8.79 0 0 0 1.794 -1.19l2.808-2.534a1.12 1.12 0 0 0 0.37 -0.795 1.13 1.13 0 0 0 -0.312 -0.82l-6.338-4.27a1.23 1.23 0 0 1 -0.386 -1.556l2.458-4.62a2.4 2.4 0 0 0 0.121 -1.834 2.8 2.8 0 0 0 -1.395 -1.265l-7.706-2.9c-0.556-0.2-0.525-0.45 0.063-0.484l4.526-0.45a7.02 7.02 0 0 1 2.113 0.188l3.938 1.1c0.578 0.174 0.94 0.75 0.843 1.346l-1.547 8.45a4.37 4.37 0 0 0 -0.076 1.426c0.063 0.202 0.592 0.45 1.17 0.592l2.4 0.5a5.83 5.83 0 0 0 2.108 0l2.157-0.5c0.58-0.13 1.103-0.404 1.17-0.606a4.38 4.38 0 0 0 -0.08 -1.426l-1.556-8.45a1.21 1.21 0 0 1 0.843 -1.346l3.938-1.103a6.98 6.98 0 0 1 2.113 -0.188l4.526 0.422c0.592 0.054 0.62 0.274 0.067 0.484l-7.7 2.92a2.76 2.76 0 0 0 -1.395 1.265 2.41 2.41 0 0 0 0.12 1.834l2.462 4.62a1.23 1.23 0 0 1 -0.386 1.556l-6.333 4.28a1.13 1.13 0 0 0 0.058 1.615l2.812 2.534a8.89 8.89 0 0 0 1.794 1.184l3.508 1.67c0.596 0.24 1.274 0.158 1.794-0.22l0.987-0.807a5.44 5.44 0 0 0 1.673 -2.35l0.206-0.565a3.16 3.16 0 0 0 -0.049 -2.005l-1.032-2.436a1.8 1.8 0 0 1 0.318 -1.794l6.28-6.683 1.413-1.628a4.36 4.36 0 0 0 0.193 -0.53z" fill="#fff"/></g>
</svg>