<?xml version="1.0" standalone="no"?>
<!DOCTYPE svg PUBLIC "-//W3C//DTD SVG 20010904//EN"
 "http://www.w3.org/TR/2001/REC-SVG-20010904/DTD/svg10.dtd">
<svg version="1.0" xmlns="http://www.w3.org/2000/svg"
 width="512.000000pt" height="512.000000pt" viewBox="0 0 512.000000 512.000000"
 preserveAspectRatio="xMidYMid meet">
<metadata>
Created by potrace 1.14, written by Peter Selinger 2001-2017
</metadata>
<g transform="translate(0.000000,512.000000) scale(0.100000,-0.100000)"
fill="#000000" stroke="none">
<path d="M2349 4796 c-2 -2 -38 -6 -79 -9 -82 -7 -290 -41 -355 -58 -22 -6
-51 -13 -65 -16 -79 -14 -461 -159 -505 -193 -5 -4 -37 -22 -70 -40 -210 -114
-461 -318 -610 -495 -27 -33 -58 -69 -68 -80 -11 -11 -56 -76 -102 -145 -204
-305 -325 -634 -372 -1010 -9 -75 -10 -479 -1 -563 11 -95 31 -217 42 -255 3
-9 8 -30 10 -47 24 -135 122 -389 216 -558 234 -422 560 -734 990 -948 253
-126 482 -195 810 -243 167 -25 627 -25 720 -1 8 2 38 6 65 10 99 12 268 49
370 81 300 95 596 251 822 435 86 71 232 215 290 287 21 26 46 56 56 67 10 11
51 70 92 130 179 267 302 577 351 884 3 18 7 43 10 55 19 101 26 506 11 657
-10 108 -51 307 -87 426 -151 507 -475 939 -926 1233 -215 141 -566 291 -762
326 -14 3 -28 7 -32 9 -8 5 -184 35 -239 41 -25 2 -57 7 -71 10 -27 6 -505 15
-511 10z m416 -590 c107 -13 130 -16 145 -21 8 -2 31 -7 50 -10 163 -27 414
-129 581 -236 92 -59 88 -56 174 -127 70 -57 100 -86 174 -168 226 -247 387
-597 426 -929 4 -27 8 -61 11 -75 6 -32 5 -312 -1 -365 -25 -225 -72 -398
-157 -584 -116 -253 -321 -500 -553 -667 -107 -76 -334 -191 -460 -233 -81
-26 -225 -59 -330 -76 -67 -11 -425 -14 -500 -4 -758 95 -1332 591 -1503 1299
-17 69 -34 152 -37 185 -4 33 -9 71 -11 85 -6 33 -5 315 1 360 2 19 7 58 11
85 3 28 9 68 14 90 5 22 12 56 15 75 25 147 159 441 275 605 110 156 318 348
492 457 107 66 341 170 415 184 12 2 34 9 48 14 14 5 39 12 54 15 15 2 63 12
107 20 43 8 117 18 164 21 47 4 86 7 87 8 6 5 256 -2 308 -8z"/>
<path d="M2435 2981 c-116 -34 -191 -90 -257 -191 -108 -167 -83 -398 59 -544
280 -287 764 -86 761 315 -3 291 -287 502 -563 420z"/>
</g>
</svg>
